<svg width="40" height="40" viewBox="0 0 40 40" fill="none" xmlns="http://www.w3.org/2000/svg">
<g clip-path="url(#clip0_138_37)">
<path d="M25.1721 7.8759H23.2331V0.488053C24.1434 0.895419 24.9962 1.47216 25.7435 2.21827L34.8013 11.2611C34.1083 11.0351 33.3207 10.9198 32.4712 10.9198C29.1624 10.9198 27.1813 12.7503 26.6755 15.149L30.0265 15.9064C30.3426 14.2021 31.017 13.5078 32.0708 13.5078C32.9981 13.5078 33.8411 14.118 33.8411 15.3594C33.8411 16.727 32.8927 17.6738 31.4385 17.6738H30.3847L29.7314 20.7247H31.1856C32.8295 20.7247 34.073 21.4612 34.073 23.1444C34.073 24.1965 33.5461 25.2064 32.1972 25.2064C30.7852 25.2064 30.0265 24.0913 29.8579 22.5342L26.0643 23.965C27.2023 26.6582 29.1413 27.8575 32.3026 27.8575C33.9675 27.8575 35.3418 27.4473 36.3556 26.7499L26.0223 37.0662C24.348 38.7377 22.1446 39.5592 19.9502 39.5305C20.8039 35.2843 22.59 31.6622 24.8138 28.8745V26.56H13.2855V29.9265H20.9359C19.1869 32.0606 17.3956 35.2533 16.374 38.686C15.5525 38.2872 14.7824 37.7473 14.1002 37.0662L4.56861 27.5503C5.2879 27.7575 6.099 27.8575 7.01208 27.8575C10.7635 27.8575 13.0397 25.7745 13.0397 23.0182C13.0397 20.4933 11.5644 19.1256 9.20392 18.7048C11.5644 18.0526 12.4285 16.3904 12.4285 15.0648C12.4285 12.3716 10.1945 10.9198 7.18068 10.9198C6.24418 10.9198 5.41404 11.0664 4.69361 11.3311L13.8215 2.21827C14.6835 1.35768 15.6857 0.722423 16.7548 0.3125L12.7586 7.37092V11.011H19.5449V14.5668H23.2331V11.011H25.1721V7.8759Z" fill="black"/>
<path d="M37.719 15.0648C37.719 14.7125 37.6808 14.3814 37.6075 14.072C40.5911 17.2937 40.5892 22.2778 37.6016 25.4972C38.0774 24.7804 38.3302 23.9367 38.3302 23.0182C38.3302 20.4933 36.8549 19.1256 34.4945 18.7048C36.8549 18.0526 37.719 16.3904 37.719 15.0648Z" fill="black"/>
<path d="M1.49368 14.7175C-0.389064 17.4308 -0.49195 21.0028 1.18504 23.8099L4.56732 22.5342C4.73593 24.0913 5.49465 25.2064 6.9067 25.2064C8.25552 25.2064 8.78241 24.1965 8.78241 23.1444C8.78241 21.4612 7.53896 20.7247 5.89507 20.7247H4.44087L5.09421 17.6738H6.14798C7.60219 17.6738 8.55059 16.727 8.55059 15.3594C8.55059 14.118 7.70756 13.5078 6.78025 13.5078C5.72648 13.5078 5.05206 14.2021 4.73593 15.9064L1.38493 15.149C1.41573 15.0029 1.45198 14.859 1.49368 14.7175Z" fill="black"/>
<path d="M15.6249 7.8759L19.5449 0.658945V7.8759H15.6249Z" fill="black"/>
</g>
<defs>
<clipPath id="clip0_138_37">
<rect width="40" height="40" fill="black"/>
</clipPath>
</defs>
</svg>
