<?xml version="1.0" encoding="UTF-8" standalone="no"?><svg xmlns="http://www.w3.org/2000/svg" xmlns:xlink="http://www.w3.org/1999/xlink" contentStyleType="text/css" height="471px" preserveAspectRatio="none" style="width:752px;height:471px;background:#FFFFFF;" version="1.1" viewBox="0 0 752 471" width="752px" zoomAndPan="magnify"><defs/><g><rect fill="#90EE90" height="329.3281" style="stroke:#181818;stroke-width:1.0;" width="10" x="177" y="125.8594"/><rect fill="#FFD700" height="204.7969" style="stroke:#181818;stroke-width:1.0;" width="10" x="374" y="170.125"/><rect fill="#808080" height="58.2656" style="stroke:#181818;stroke-width:1.0;" width="10" x="527" y="199.2578"/><rect fill="#0000FF" height="29.1328" style="stroke:#181818;stroke-width:1.0;" width="10" x="610" y="286.6563"/><rect fill="#808080" height="30" style="stroke:#181818;stroke-width:1.0;" width="10" x="698.5" y="344.9219"/><line style="stroke:#181818;stroke-width:0.5;stroke-dasharray:5.0,5.0;" x1="28" x2="28" y1="52.5938" y2="464.1875"/><line style="stroke:#181818;stroke-width:0.5;stroke-dasharray:5.0,5.0;" x1="182" x2="182" y1="52.5938" y2="464.1875"/><line style="stroke:#181818;stroke-width:0.5;stroke-dasharray:5.0,5.0;" x1="379" x2="379" y1="52.5938" y2="464.1875"/><line style="stroke:#181818;stroke-width:0.5;stroke-dasharray:5.0,5.0;" x1="531.5" x2="531.5" y1="52.5938" y2="464.1875"/><line style="stroke:#181818;stroke-width:0.5;stroke-dasharray:5.0,5.0;" x1="614.5" x2="614.5" y1="52.5938" y2="464.1875"/><line style="stroke:#181818;stroke-width:0.5;stroke-dasharray:5.0,5.0;" x1="703.5" x2="703.5" y1="52.5938" y2="464.1875"/><rect fill="#90EE90" height="30.2969" rx="2.5" ry="2.5" style="stroke:#181818;stroke-width:0.5;" width="46" x="5" y="21.2969"/><text fill="#000000" font-family="sans-serif" font-size="14" lengthAdjust="spacing" textLength="32" x="12" y="41.292">User</text><rect fill="#90EE90" height="30.2969" rx="2.5" ry="2.5" style="stroke:#181818;stroke-width:0.5;" width="68" x="148" y="21.2969"/><text fill="#000000" font-family="sans-serif" font-size="14" lengthAdjust="spacing" textLength="54" x="155" y="41.292">Bundler</text><rect fill="#E2E2F0" height="46.5938" rx="2.5" ry="2.5" style="stroke:#181818;stroke-width:0.5;" width="84" x="337" y="5"/><text fill="#000000" font-family="sans-serif" font-size="14" lengthAdjust="spacing" textLength="70" x="344" y="24.9951">EntryPoint</text><text fill="#000000" font-family="sans-serif" font-size="14" lengthAdjust="spacing" textLength="57" x="350.5" y="41.292">contract</text><rect fill="#E2E2F0" height="46.5938" rx="2.5" ry="2.5" style="stroke:#181818;stroke-width:0.5;" width="71" x="496.5" y="5"/><text fill="#000000" font-family="sans-serif" font-size="14" lengthAdjust="spacing" textLength="50" x="507" y="24.9951">Factory</text><text fill="#000000" font-family="sans-serif" font-size="14" lengthAdjust="spacing" textLength="57" x="503.5" y="41.292">contract</text><rect fill="#E2E2F0" height="46.5938" rx="2.5" ry="2.5" style="stroke:#181818;stroke-width:0.5;" width="71" x="579.5" y="5"/><text fill="#000000" font-family="sans-serif" font-size="14" lengthAdjust="spacing" textLength="57" x="586.5" y="24.9951">Account</text><text fill="#000000" font-family="sans-serif" font-size="14" lengthAdjust="spacing" textLength="57" x="586.5" y="41.292">contract</text><rect fill="#E2E2F0" height="46.5938" rx="2.5" ry="2.5" style="stroke:#181818;stroke-width:0.5;" width="86" x="660.5" y="5"/><text fill="#000000" font-family="sans-serif" font-size="14" lengthAdjust="spacing" textLength="72" x="667.5" y="24.9951">Paymaster</text><text fill="#000000" font-family="sans-serif" font-size="14" lengthAdjust="spacing" textLength="57" x="675" y="41.292">contract</text><rect fill="#90EE90" height="329.3281" style="stroke:#181818;stroke-width:1.0;" width="10" x="177" y="125.8594"/><rect fill="#FFD700" height="204.7969" style="stroke:#181818;stroke-width:1.0;" width="10" x="374" y="170.125"/><rect fill="#808080" height="58.2656" style="stroke:#181818;stroke-width:1.0;" width="10" x="527" y="199.2578"/><rect fill="#0000FF" height="29.1328" style="stroke:#181818;stroke-width:1.0;" width="10" x="610" y="286.6563"/><rect fill="#808080" height="30" style="stroke:#181818;stroke-width:1.0;" width="10" x="698.5" y="344.9219"/><line style="stroke:#181818;stroke-width:1.0;" x1="28" x2="70" y1="83.7266" y2="83.7266"/><line style="stroke:#181818;stroke-width:1.0;" x1="70" x2="70" y1="83.7266" y2="96.7266"/><line style="stroke:#181818;stroke-width:1.0;" x1="29" x2="70" y1="96.7266" y2="96.7266"/><polygon fill="#181818" points="39,92.7266,29,96.7266,39,100.7266,35,96.7266" style="stroke:#181818;stroke-width:1.0;"/><text fill="#000000" font-family="sans-serif" font-size="13" font-weight="bold" lengthAdjust="spacing" textLength="9" x="35" y="78.6606">1</text><text fill="#000000" font-family="sans-serif" font-size="13" lengthAdjust="spacing" textLength="127" x="48" y="78.6606">create, sign UserOp</text><polygon fill="#181818" points="165,121.8594,175,125.8594,165,129.8594,169,125.8594" style="stroke:#181818;stroke-width:1.0;"/><line style="stroke:#181818;stroke-width:1.0;" x1="28" x2="171" y1="125.8594" y2="125.8594"/><text fill="#000000" font-family="sans-serif" font-size="13" font-weight="bold" lengthAdjust="spacing" textLength="9" x="35" y="120.7935">2</text><text fill="#000000" font-family="sans-serif" font-size="13" lengthAdjust="spacing" textLength="107" x="48" y="120.7935">eth_sendUserOp</text><polygon fill="#181818" points="362,166.125,372,170.125,362,174.125,366,170.125" style="stroke:#181818;stroke-width:1.0;"/><line style="stroke:#181818;stroke-width:1.0;" x1="187" x2="368" y1="170.125" y2="170.125"/><text fill="#000000" font-family="sans-serif" font-size="13" font-weight="bold" lengthAdjust="spacing" textLength="9" x="194" y="157.4927">3</text><text fill="#000000" font-family="sans-serif" font-size="13" lengthAdjust="spacing" textLength="60" x="207" y="149.9263">traceCall:</text><text fill="#000000" font-family="sans-serif" font-size="13" lengthAdjust="spacing" textLength="118" x="207" y="165.0591">simulateValidation</text><polygon fill="#181818" points="515,195.2578,525,199.2578,515,203.2578,519,199.2578" style="stroke:#181818;stroke-width:1.0;"/><line style="stroke:#181818;stroke-width:1.0;" x1="384" x2="521" y1="199.2578" y2="199.2578"/><text fill="#000000" font-family="sans-serif" font-size="13" font-weight="bold" lengthAdjust="spacing" textLength="9" x="391" y="194.1919">4</text><text fill="#808080" font-family="sans-serif" font-size="13" lengthAdjust="spacing" textLength="107" x="408" y="194.1919">create (initCode)</text><ellipse cx="614.5" cy="227.6406" fill="none" rx="4" ry="4" style="stroke:#181818;stroke-width:1.5;"/><polygon fill="#181818" points="597.5,224.3906,607.5,228.3906,597.5,232.3906,601.5,228.3906" style="stroke:#181818;stroke-width:1.0;"/><line style="stroke:#181818;stroke-width:1.0;" x1="537" x2="603.5" y1="228.3906" y2="228.3906"/><text fill="#000000" font-family="sans-serif" font-size="13" font-weight="bold" lengthAdjust="spacing" textLength="9" x="544" y="223.3247">5</text><text fill="#808080" font-family="sans-serif" font-size="13" lengthAdjust="spacing" textLength="41" x="557" y="223.3247">create</text><polygon fill="#181818" points="395,253.5234,385,257.5234,395,261.5234,391,257.5234" style="stroke:#181818;stroke-width:1.0;"/><line style="stroke:#181818;stroke-width:1.0;stroke-dasharray:2.0,2.0;" x1="389" x2="531" y1="257.5234" y2="257.5234"/><text fill="#000000" font-family="sans-serif" font-size="13" font-weight="bold" lengthAdjust="spacing" textLength="9" x="401" y="252.4575">6</text><text fill="#808080" font-family="sans-serif" font-size="13" lengthAdjust="spacing" textLength="51" x="414" y="252.4575">account</text><polygon fill="#181818" points="598,282.6563,608,286.6563,598,290.6563,602,286.6563" style="stroke:#181818;stroke-width:1.0;"/><line style="stroke:#181818;stroke-width:1.0;" x1="384" x2="604" y1="286.6563" y2="286.6563"/><text fill="#000000" font-family="sans-serif" font-size="13" font-weight="bold" lengthAdjust="spacing" textLength="9" x="391" y="281.5903">7</text><text fill="#0000FF" font-family="sans-serif" font-size="13" lengthAdjust="spacing" textLength="98" x="408" y="281.5903">validateUserOp</text><polygon fill="#181818" points="395,311.7891,385,315.7891,395,319.7891,391,315.7891" style="stroke:#181818;stroke-width:1.0;"/><line style="stroke:#181818;stroke-width:1.0;stroke-dasharray:2.0,2.0;" x1="389" x2="614" y1="315.7891" y2="315.7891"/><text fill="#000000" font-family="sans-serif" font-size="13" font-weight="bold" lengthAdjust="spacing" textLength="9" x="401" y="310.7231">8</text><text fill="#000000" font-family="sans-serif" font-size="13" lengthAdjust="spacing" textLength="169" x="414" y="310.7231">send fee (if no paymaster)</text><polygon fill="#181818" points="686.5,340.9219,696.5,344.9219,686.5,348.9219,690.5,344.9219" style="stroke:#181818;stroke-width:1.0;"/><line style="stroke:#181818;stroke-width:1.0;" x1="384" x2="692.5" y1="344.9219" y2="344.9219"/><text fill="#000000" font-family="sans-serif" font-size="13" font-weight="bold" lengthAdjust="spacing" textLength="9" x="391" y="339.856">9</text><text fill="#808080" font-family="sans-serif" font-size="13" lengthAdjust="spacing" textLength="167" x="408" y="339.856">validatePaymasterUserOp</text><line style="stroke:#181818;stroke-width:1.0;" x1="187" x2="229" y1="404.0547" y2="404.0547"/><line style="stroke:#181818;stroke-width:1.0;" x1="229" x2="229" y1="404.0547" y2="417.0547"/><line style="stroke:#181818;stroke-width:1.0;" x1="188" x2="229" y1="417.0547" y2="417.0547"/><polygon fill="#181818" points="198,413.0547,188,417.0547,198,421.0547,194,417.0547" style="stroke:#181818;stroke-width:1.0;"/><text fill="#000000" font-family="sans-serif" font-size="13" font-weight="bold" lengthAdjust="spacing" textLength="18" x="194" y="398.9888">10</text><text fill="#000000" font-family="sans-serif" font-size="13" lengthAdjust="spacing" textLength="151" x="216" y="398.9888">validate storage access</text><polygon fill="#181818" points="739.5,442.1875,749.5,446.1875,739.5,450.1875,743.5,446.1875" style="stroke:#181818;stroke-width:1.0;"/><line style="stroke:#181818;stroke-width:1.0;stroke-dasharray:2.0,2.0;" x1="187" x2="745.5" y1="446.1875" y2="446.1875"/><text fill="#000000" font-family="sans-serif" font-size="13" font-weight="bold" lengthAdjust="spacing" textLength="18" x="194" y="441.1216">11</text><text fill="#000000" font-family="sans-serif" font-size="13" lengthAdjust="spacing" textLength="106" x="216" y="441.1216">add to mempool</text><!--SRC=[VL9DJyCm3BttLrZZ0DFe7uX69PZWoYvm6a9PwtQHaZXAqa7_FV6QJUi6z93cuxrdFzkoZsHxiqLVEEcZgfMJDi9RG0yoGC__6wswNUmyefs0ddhRw15dgS4_SRDd6_sm9cNZnjQK3hAECwQXcm9VqWFvuGBLfiqKzrZNr5-fVKcjyGAvbeEH8QA_m3fJiBUoubL0xL56l8UWEdim_-gAMpQrBCiFaM-WzMJ0eA7qwSndq69nxbq0njrdGDja8OQK5Jg6TQGR0Pm7hbAwOcE3ChrEmT-bLesCYco1hgpOz87WvI1WsQRaeIPD_e5lgfmnt2chuYe5c1VCA2lAPVY5Cr8AZx7tzlfPZaKzH1yrEFvMzpZLufiAzcEwc3rcKNODBN9URHeASCVopm-oplndwIXvwbdMRZ0vKtksczfsTahZaulBgpW9G4XJ93k4P0b3oA2o4Y2R1Y9n3nstSAVIsBP4SKlVFm00]--></g></svg>