<?xml version="1.0" encoding="UTF-8"?>
<svg xmlns="http://www.w3.org/2000/svg" viewBox="0 0 472.861 185.155">
  <defs>
    <style>
      .cls-1 {
        mix-blend-mode: multiply;
      }

      .cls-2 {
        isolation: isolate;
      }

      .cls-3 {
        fill: #2e1d3a;
        stroke-width: 0px;
      }
    </style>
  </defs>
  <g class="cls-2">
    <g id="Layer_1" data-name="Layer 1">
      <g class="cls-1">
        <g>
          <g>
            <g>
              <polygon class="cls-3" points="0 163.595 14.76 185.155 29.519 163.595 14.76 172.995 0 163.595"/>
              <polygon class="cls-3" points="29.519 159.439 14.76 133.815 0 159.439 14.76 168.84 29.519 159.439"/>
            </g>
            <g>
              <path class="cls-3" d="m72.981,145.731v6.819h-22.654v3.814h22.654v6.434h-22.654v3.622h22.654v6.819h-29.936v-27.509h29.936Z"/>
              <path class="cls-3" d="m111.587,156.018c0,1.516-.192,2.819-.578,3.911-.385,1.092-.898,2.017-1.541,2.774-.642.758-1.381,1.368-2.215,1.83-.835.462-1.715.822-2.64,1.079l8.361,7.629h-9.979l-7.243-6.935h-9.67v6.935h-7.32v-27.509h19.688c.821,0,1.721.032,2.697.096.976.064,1.951.212,2.928.443.976.231,1.913.572,2.812,1.021.898.45,1.695,1.059,2.389,1.83.693.771,1.252,1.714,1.676,2.832s.636,2.472.636,4.065Zm-25.505,3.39h12.983c.976,0,1.778-.077,2.408-.231.629-.154,1.123-.372,1.483-.655.359-.282.609-.636.751-1.059.141-.424.212-.906.212-1.445s-.071-1.014-.212-1.426c-.142-.411-.392-.764-.751-1.06-.36-.295-.854-.513-1.483-.655-.63-.141-1.433-.212-2.408-.212h-12.983v6.742Z"/>
              <path class="cls-3" d="m127.807,152.666c-.977,0-1.772.193-2.389.578-.617.385-1.105.893-1.465,1.522-.359.63-.61,1.355-.751,2.177-.142.822-.212,1.67-.212,2.543s.07,1.721.212,2.543c.141.822.392,1.554.751,2.196.359.642.848,1.156,1.465,1.541.616.385,1.412.578,2.389.578h10.017c1.465,0,2.53-.359,3.198-1.079.668-.719,1.143-1.811,1.426-3.275h7.744c-.206,1.721-.598,3.192-1.176,4.411-.577,1.22-1.271,2.248-2.08,3.082-.81.835-1.695,1.497-2.658,1.984-.964.488-1.946.867-2.947,1.137-1.002.27-1.979.443-2.929.52-.95.077-1.811.115-2.581.115h-6.011c-.822,0-1.753-.045-2.793-.135-1.04-.09-2.1-.295-3.179-.616-1.079-.321-2.126-.783-3.14-1.387-1.016-.603-1.927-1.412-2.735-2.427-.81-1.014-1.458-2.273-1.946-3.776-.488-1.503-.731-3.307-.731-5.413s.243-3.911.731-5.413,1.137-2.761,1.946-3.776c.809-1.014,1.72-1.823,2.735-2.427,1.014-.603,2.061-1.066,3.14-1.387,1.079-.321,2.139-.526,3.179-.616,1.04-.09,1.971-.135,2.793-.135h6.011c.771,0,1.631.039,2.581.116s1.927.25,2.929.52c1.001.27,1.983.649,2.947,1.136.963.488,1.849,1.15,2.658,1.984.809.835,1.503,1.863,2.08,3.082.578,1.22.97,2.691,1.176,4.411h-7.744c-.181-1.335-.63-2.389-1.349-3.159-.72-.771-1.811-1.156-3.275-1.156h-10.017Z"/>
              <path class="cls-3" d="m154.43,157.174h15.025v4.431h-15.025v-4.431Z"/>
              <path class="cls-3" d="m198.774,161.489h3.737v6.55h-3.737v5.201h-7.32v-5.201h-19.302v-3.891l15.604-18.416h11.019v15.758Zm-7.32-10.017l-8.283,10.017h8.283v-10.017Z"/>
              <path class="cls-3" d="m237.687,154.207c0,1.053-.25,2.042-.751,2.967s-1.368,1.695-2.601,2.312c1.232.616,2.1,1.387,2.601,2.312s.751,1.926.751,3.005c0,.514-.045,1.079-.135,1.695s-.289,1.24-.597,1.869c-.309.63-.752,1.24-1.33,1.83-.577.591-1.348,1.111-2.312,1.56-.963.45-2.145.809-3.544,1.079-1.4.27-3.089.405-5.066.405h-4.894c-1.979,0-3.673-.167-5.086-.501-1.412-.333-2.601-.764-3.563-1.291-.963-.526-1.733-1.137-2.312-1.83s-1.021-1.393-1.329-2.1c-.309-.706-.508-1.4-.598-2.081-.09-.68-.135-1.277-.135-1.792h7.32c0,.206.039.462.115.771.077.308.251.604.521.886.27.283.648.527,1.137.732.487.206,1.13.308,1.927.308h10.017c.514,0,.938-.064,1.271-.193.334-.128.598-.295.79-.501.192-.205.327-.43.404-.674.077-.244.116-.494.116-.751,0-.591-.226-1.098-.675-1.522s-1.278-.636-2.485-.636h-10.479v-5.163h10.479c1.207,0,2.036-.212,2.485-.636s.675-.918.675-1.483c0-.256-.039-.514-.116-.771-.077-.256-.212-.482-.404-.674s-.456-.353-.79-.482c-.334-.128-.758-.193-1.271-.193h-11.211c-1.079,0-1.779.18-2.101.539-.321.36-.481.951-.481,1.772h-7.281c0-.976.121-2.01.365-3.102.244-1.091.81-2.093,1.695-3.005.887-.911,2.189-1.663,3.911-2.254,1.721-.591,4.058-.886,7.012-.886h4.971c1.978,0,3.666.135,5.066.405,1.399.27,2.581.63,3.544,1.079.964.45,1.734.97,2.312,1.56.578.591,1.021,1.201,1.33,1.83.308.63.507,1.259.597,1.888.09.63.135,1.201.135,1.715Z"/>
              <path class="cls-3" d="m272.864,154.207c0,1.053-.25,2.042-.751,2.967s-1.368,1.695-2.601,2.312c1.232.616,2.1,1.387,2.601,2.312s.751,1.926.751,3.005c0,.514-.045,1.079-.135,1.695s-.289,1.24-.597,1.869c-.309.63-.752,1.24-1.33,1.83-.577.591-1.348,1.111-2.312,1.56-.963.45-2.145.809-3.544,1.079-1.4.27-3.089.405-5.066.405h-4.894c-1.979,0-3.673-.167-5.086-.501-1.412-.333-2.601-.764-3.563-1.291-.963-.526-1.733-1.137-2.312-1.83s-1.021-1.393-1.329-2.1c-.309-.706-.508-1.4-.598-2.081-.09-.68-.135-1.277-.135-1.792h7.32c0,.206.039.462.115.771.077.308.251.604.521.886.27.283.648.527,1.137.732.487.206,1.13.308,1.927.308h10.017c.514,0,.938-.064,1.271-.193.334-.128.598-.295.79-.501.192-.205.327-.43.404-.674.077-.244.116-.494.116-.751,0-.591-.226-1.098-.675-1.522s-1.278-.636-2.485-.636h-10.479v-5.163h10.479c1.207,0,2.036-.212,2.485-.636s.675-.918.675-1.483c0-.256-.039-.514-.116-.771-.077-.256-.212-.482-.404-.674s-.456-.353-.79-.482c-.334-.128-.758-.193-1.271-.193h-11.211c-1.079,0-1.779.18-2.101.539-.321.36-.481.951-.481,1.772h-7.281c0-.976.121-2.01.365-3.102.244-1.091.81-2.093,1.695-3.005.887-.911,2.189-1.663,3.911-2.254,1.721-.591,4.058-.886,7.012-.886h4.971c1.978,0,3.666.135,5.066.405,1.399.27,2.581.63,3.544,1.079.964.45,1.734.97,2.312,1.56.578.591,1.021,1.201,1.33,1.83.308.63.507,1.259.597,1.888.09.63.135,1.201.135,1.715Z"/>
              <path class="cls-3" d="m276.332,145.731h28.664v6.935l-14.679,20.574h-9.594l15.797-20.574h-20.188v-6.935Z"/>
              <path class="cls-3" d="m326.187,145.731h27.701v6.935h-10.325v20.574h-7.282v-20.574h-10.094v-6.935Z"/>
              <path class="cls-3" d="m388.062,145.731v6.819h-22.654v3.814h22.654v6.434h-22.654v3.622h22.654v6.819h-29.936v-27.509h29.936Z"/>
              <path class="cls-3" d="m413.49,145.731l13.831,27.509h-8.168l-2.812-5.972h-14.602l-2.812,5.972h-8.168l13.87-27.509h8.861Zm-.231,15.026l-4.199-8.977-4.238,8.977h8.438Z"/>
              <path class="cls-3" d="m460.995,145.731h11.866v27.509h-7.32v-19.919l-9.439,19.919h-9.362l-9.439-19.919v19.919h-7.281v-27.509h11.828l9.593,19.726,9.556-19.726Z"/>
            </g>
          </g>
          <g>
            <polygon class="cls-3" points="409.478 59.669 409.478 1.36 363.89 23.314 409.478 59.669"/>
            <polygon class="cls-3" points="351.027 79.671 382.575 119.231 407.874 66.696 351.027 79.671"/>
            <polygon class="cls-3" points="436.777 120.967 411.478 68.432 386.179 120.967 436.777 120.967"/>
            <polygon class="cls-3" points="472.819 75.772 461.56 26.442 415.972 62.797 472.819 75.772"/>
            <polygon class="cls-3" points="415.082 66.696 440.381 119.231 471.929 79.671 415.082 66.696"/>
            <polygon class="cls-3" points="413.478 1.36 413.478 59.669 459.066 23.314 413.478 1.36"/>
            <polygon class="cls-3" points="361.396 26.442 350.137 75.772 406.984 62.797 361.396 26.442"/>
            <polygon class="cls-3" points="270.113 120.967 205.427 83.621 140.742 120.967 270.113 120.967"/>
            <polygon class="cls-3" points="207.427 5.464 207.427 80.156 272.113 117.502 207.427 5.464"/>
            <polygon class="cls-3" points="203.427 80.156 203.427 5.464 138.742 117.502 203.427 80.156"/>
            <polygon class="cls-3" points="227.936 0 292.622 37.346 357.307 0 227.936 0"/>
            <polygon class="cls-3" points="290.622 115.502 290.622 40.81 225.936 3.464 290.622 115.502"/>
            <polygon class="cls-3" points="294.622 40.81 294.622 115.502 359.307 3.464 294.622 40.81"/>
            <polygon class="cls-3" points="62.484 57.655 120.138 0 4.828 0 62.484 57.655"/>
            <polygon class="cls-3" points="2 2.828 2 118.138 59.655 60.483 2 2.828"/>
            <polygon class="cls-3" points="4.828 120.967 120.138 120.967 62.484 63.312 4.828 120.967"/>
            <polygon class="cls-3" points="122.966 118.138 122.966 2.828 65.312 60.483 122.966 118.138"/>
          </g>
        </g>
      </g>
    </g>
  </g>
</svg>