<svg width="36" height="36" viewBox="0 0 36 36" fill="none" xmlns="http://www.w3.org/2000/svg">
<path d="M15.48 26.28L28.17 13.59L25.65 11.07L15.48 21.24L10.35 16.11L7.83 18.63L15.48 26.28ZM18 36C15.51 36 13.17 35.5272 10.98 34.5816C8.79 33.6372 6.885 32.355 5.265 30.735C3.645 29.115 2.3628 27.21 1.4184 25.02C0.4728 22.83 0 20.49 0 18C0 15.51 0.4728 13.17 1.4184 10.98C2.3628 8.79 3.645 6.885 5.265 5.265C6.885 3.645 8.79 2.3622 10.98 1.4166C13.17 0.4722 15.51 0 18 0C20.49 0 22.83 0.4722 25.02 1.4166C27.21 2.3622 29.115 3.645 30.735 5.265C32.355 6.885 33.6372 8.79 34.5816 10.98C35.5272 13.17 36 15.51 36 18C36 20.49 35.5272 22.83 34.5816 25.02C33.6372 27.21 32.355 29.115 30.735 30.735C29.115 32.355 27.21 33.6372 25.02 34.5816C22.83 35.5272 20.49 36 18 36Z" fill="#81D177"/>
</svg>
